<svg width="55" height="40" viewBox="0 0 55 40" fill="none" xmlns="http://www.w3.org/2000/svg">
<path d="M25.8965 22.8369C25.8965 28.3564 24.8594 32.5225 22.7852 35.335C20.7285 38.1299 17.5908 39.5273 13.3721 39.5273C9.22363 39.5273 6.09473 38.165 3.98535 35.4404C1.89355 32.6982 0.821289 28.6465 0.768555 23.2852V16.6406C0.768555 11.1211 1.79688 6.98145 3.85352 4.22168C5.92773 1.46191 9.08301 0.0820312 13.3193 0.0820312C17.5205 0.0820312 20.6494 1.42676 22.7061 4.11621C24.7803 6.80566 25.8438 10.8311 25.8965 16.1924V22.8369ZM19.4893 15.665C19.4893 12.0615 18.9971 9.4248 18.0127 7.75488C17.0283 6.06738 15.4639 5.22363 13.3193 5.22363C11.2275 5.22363 9.68945 6.02344 8.70508 7.62305C7.7207 9.20508 7.20215 11.6836 7.14941 15.0586V23.7598C7.14941 27.3457 7.65039 30.0176 8.65234 31.7754C9.6543 33.5332 11.2275 34.4121 13.3721 34.4121C15.4287 34.4121 16.9492 33.6035 17.9336 31.9863C18.918 30.3516 19.4365 27.8027 19.4893 24.3398V15.665ZM54.9489 39H29.1354V34.5967L41.9235 20.6484C43.7692 18.5918 45.0788 16.8779 45.8522 15.5068C46.6432 14.1182 47.0387 12.7295 47.0387 11.3408C47.0387 9.5127 46.5202 8.03613 45.4831 6.91113C44.4636 5.78613 43.0837 5.22363 41.3434 5.22363C39.2692 5.22363 37.6608 5.85645 36.5182 7.12207C35.3757 8.3877 34.8044 10.1191 34.8044 12.3164H28.3971C28.3971 9.97852 28.9245 7.87793 29.9792 6.01465C31.0514 4.13379 32.572 2.6748 34.5407 1.6377C36.527 0.600586 38.8122 0.0820312 41.3962 0.0820312C45.1227 0.0820312 48.0583 1.02246 50.2028 2.90332C52.3649 4.7666 53.446 7.35059 53.446 10.6553C53.446 12.5713 52.9011 14.584 51.8112 16.6934C50.7389 18.7852 48.9723 21.167 46.5114 23.8389L37.1247 33.8848H54.9489V39Z" fill="#2C467C"/>
</svg>
