<svg width="54" height="40" viewBox="0 0 54 40" fill="none" xmlns="http://www.w3.org/2000/svg">
<path d="M25.8965 22.8369C25.8965 28.3564 24.8594 32.5225 22.7852 35.335C20.7285 38.1299 17.5908 39.5273 13.3721 39.5273C9.22363 39.5273 6.09473 38.165 3.98535 35.4404C1.89355 32.6982 0.821289 28.6465 0.768555 23.2852V16.6406C0.768555 11.1211 1.79688 6.98145 3.85352 4.22168C5.92773 1.46191 9.08301 0.0820312 13.3193 0.0820312C17.5205 0.0820312 20.6494 1.42676 22.7061 4.11621C24.7803 6.80566 25.8438 10.8311 25.8965 16.1924V22.8369ZM19.4893 15.665C19.4893 12.0615 18.9971 9.4248 18.0127 7.75488C17.0283 6.06738 15.4639 5.22363 13.3193 5.22363C11.2275 5.22363 9.68945 6.02344 8.70508 7.62305C7.7207 9.20508 7.20215 11.6836 7.14941 15.0586V23.7598C7.14941 27.3457 7.65039 30.0176 8.65234 31.7754C9.6543 33.5332 11.2275 34.4121 13.3721 34.4121C15.4287 34.4121 16.9492 33.6035 17.9336 31.9863C18.918 30.3516 19.4365 27.8027 19.4893 24.3398V15.665ZM36.5446 16.8779H40.447C42.4157 16.8604 43.9714 16.3506 45.1139 15.3486C46.2741 14.3467 46.8542 12.8965 46.8542 10.998C46.8542 9.16992 46.3708 7.75488 45.404 6.75293C44.4548 5.7334 42.9958 5.22363 41.027 5.22363C39.3044 5.22363 37.8893 5.72461 36.7819 6.72656C35.6745 7.71094 35.1208 9.00293 35.1208 10.6025H28.7136C28.7136 8.63379 29.2321 6.84082 30.2692 5.22363C31.3239 3.60645 32.7829 2.34961 34.6462 1.45312C36.527 0.539062 38.6276 0.0820312 40.9479 0.0820312C44.78 0.0820312 47.7858 1.04883 49.9655 2.98242C52.1628 4.89844 53.2614 7.57031 53.2614 10.998C53.2614 12.7207 52.7077 14.3467 51.6003 15.876C50.5104 17.3877 49.0954 18.5303 47.3552 19.3037C49.4645 20.0244 51.0641 21.1582 52.154 22.7051C53.2614 24.252 53.8151 26.0977 53.8151 28.2422C53.8151 31.6875 52.6286 34.4297 50.2555 36.4688C47.9001 38.5078 44.7975 39.5273 40.9479 39.5273C37.2565 39.5273 34.2331 38.543 31.8776 36.5742C29.5221 34.6055 28.3444 31.9863 28.3444 28.7168H34.7516C34.7516 30.4043 35.3141 31.7754 36.4391 32.8301C37.5817 33.8848 39.111 34.4121 41.027 34.4121C43.0134 34.4121 44.5778 33.8848 45.7204 32.8301C46.863 31.7754 47.4343 30.2461 47.4343 28.2422C47.4343 26.2207 46.8366 24.665 45.6413 23.5752C44.446 22.4854 42.6706 21.9404 40.3151 21.9404H36.5446V16.8779Z" fill="#2C467C"/>
</svg>
