<svg width="56" height="40" viewBox="0 0 56 40" fill="none" xmlns="http://www.w3.org/2000/svg">
<path d="M25.8965 22.8369C25.8965 28.3564 24.8594 32.5225 22.7852 35.335C20.7285 38.1299 17.5908 39.5273 13.3721 39.5273C9.22363 39.5273 6.09473 38.165 3.98535 35.4404C1.89355 32.6982 0.821289 28.6465 0.768555 23.2852V16.6406C0.768555 11.1211 1.79688 6.98145 3.85352 4.22168C5.92773 1.46191 9.08301 0.0820312 13.3193 0.0820312C17.5205 0.0820312 20.6494 1.42676 22.7061 4.11621C24.7803 6.80566 25.8438 10.8311 25.8965 16.1924V22.8369ZM19.4893 15.665C19.4893 12.0615 18.9971 9.4248 18.0127 7.75488C17.0283 6.06738 15.4639 5.22363 13.3193 5.22363C11.2275 5.22363 9.68945 6.02344 8.70508 7.62305C7.7207 9.20508 7.20215 11.6836 7.14941 15.0586V23.7598C7.14941 27.3457 7.65039 30.0176 8.65234 31.7754C9.6543 33.5332 11.2275 34.4121 13.3721 34.4121C15.4287 34.4121 16.9492 33.6035 17.9336 31.9863C18.918 30.3516 19.4365 27.8027 19.4893 24.3398V15.665ZM50.8093 25.3154H55.5817V30.457H50.8093V39H44.402V30.457H27.8171L27.6325 26.5547L44.1911 0.609375H50.8093V25.3154ZM34.3561 25.3154H44.402V9.28418L43.9274 10.1279L34.3561 25.3154Z" fill="#2C467C"/>
</svg>
