<svg width="55" height="40" viewBox="0 0 55 40" fill="none" xmlns="http://www.w3.org/2000/svg">
<path d="M25.8965 22.8369C25.8965 28.3564 24.8594 32.5225 22.7852 35.335C20.7285 38.1299 17.5908 39.5273 13.3721 39.5273C9.22363 39.5273 6.09473 38.165 3.98535 35.4404C1.89355 32.6982 0.821289 28.6465 0.768555 23.2852V16.6406C0.768555 11.1211 1.79688 6.98145 3.85352 4.22168C5.92773 1.46191 9.08301 0.0820312 13.3193 0.0820312C17.5205 0.0820312 20.6494 1.42676 22.7061 4.11621C24.7803 6.80566 25.8438 10.8311 25.8965 16.1924V22.8369ZM19.4893 15.665C19.4893 12.0615 18.9971 9.4248 18.0127 7.75488C17.0283 6.06738 15.4639 5.22363 13.3193 5.22363C11.2275 5.22363 9.68945 6.02344 8.70508 7.62305C7.7207 9.20508 7.20215 11.6836 7.14941 15.0586V23.7598C7.14941 27.3457 7.65039 30.0176 8.65234 31.7754C9.6543 33.5332 11.2275 34.4121 13.3721 34.4121C15.4287 34.4121 16.9492 33.6035 17.9336 31.9863C18.918 30.3516 19.4365 27.8027 19.4893 24.3398V15.665ZM30.8493 19.9629L32.9323 0.609375H53.5514V6.14648H38.2585L37.2038 15.3223C38.9792 14.3027 40.9831 13.793 43.2155 13.793C46.8718 13.793 49.7106 14.9619 51.7321 17.2998C53.7712 19.6377 54.7907 22.7842 54.7907 26.7393C54.7907 30.6416 53.6657 33.7529 51.4157 36.0732C49.1657 38.376 46.0807 39.5273 42.1608 39.5273C38.6452 39.5273 35.7272 38.5342 33.4069 36.5479C31.1042 34.5439 29.8561 31.9072 29.6628 28.6377H35.8591C36.1052 30.501 36.7731 31.9336 37.863 32.9355C38.9528 33.9199 40.3766 34.4121 42.1345 34.4121C44.1032 34.4121 45.6325 33.709 46.7223 32.3027C47.8298 30.8965 48.3835 28.9805 48.3835 26.5547C48.3835 24.2168 47.777 22.3711 46.5641 21.0176C45.3512 19.6465 43.6813 18.9609 41.5544 18.9609C40.3942 18.9609 39.4098 19.1191 38.6012 19.4355C37.7927 19.7344 36.9137 20.332 35.9645 21.2285L30.8493 19.9629Z" fill="#2C467C"/>
</svg>
