<svg width="150" height="150" viewBox="0 0 150 150" fill="none" xmlns="http://www.w3.org/2000/svg">
<g clip-path="url(#clip0)">
<path d="M130.193 83.0463C127.883 80.3765 125.282 77.6847 122.434 75.0002C125.282 72.3157 127.883 69.6238 130.193 66.954C135.008 61.3899 138.353 56.1703 140.136 51.4398C142.196 45.9702 142.135 41.2802 139.952 37.5001C137.77 33.7199 133.739 31.3215 127.972 30.3714C122.984 29.5497 116.791 29.8367 109.565 31.2244C106.098 31.8904 102.466 32.7967 98.717 33.9214C97.8972 30.4534 96.9682 27.163 95.9355 24.0839C97.5403 22.5548 98.5434 20.3999 98.5434 18.0135C98.5434 13.3877 94.7798 9.62451 90.1543 9.62451C89.8511 9.62451 89.5519 9.64143 89.257 9.67303C88.5773 8.64188 87.8801 7.68415 87.164 6.81103C83.4573 2.29152 79.3649 0 74.9999 0C70.6349 0 66.5429 2.29152 62.8365 6.81103C59.631 10.7198 56.783 16.2267 54.3718 23.1782C53.2149 26.514 52.184 30.1122 51.2834 33.9214C47.5343 32.7967 43.9026 31.89 40.4353 31.2244C33.2092 29.8367 27.0163 29.5497 22.0284 30.3714C16.2613 31.3215 12.2306 33.7199 10.0482 37.5001C7.86589 41.2802 7.80427 45.9702 9.86498 51.4398C11.6473 56.1703 14.9923 61.3899 19.8071 66.954C22.1175 69.6238 24.7184 72.3157 27.5669 75.0002C25.8584 76.6101 24.2382 78.2229 22.718 79.8319C21.9346 79.5893 21.1023 79.458 20.24 79.458C15.6142 79.458 11.851 83.2216 11.851 87.8471C11.851 89.4235 12.2887 90.8994 13.0478 92.1604C11.7003 94.3772 10.636 96.5148 9.86498 98.5605C7.80395 104.03 7.86589 108.72 10.0482 112.5C12.2306 116.28 16.2613 118.679 22.0284 119.629C23.8794 119.933 25.896 120.086 28.0701 120.086C31.7544 120.086 35.8909 119.648 40.435 118.776C43.9022 118.11 47.5339 117.203 51.2831 116.079C52.1837 119.888 53.2145 123.486 54.3715 126.822C56.7827 133.774 59.6307 139.28 62.8362 143.189C66.5426 147.709 70.6349 150 74.9999 150C79.3649 150 83.4573 147.709 87.1637 143.189C90.3692 139.28 93.2172 133.774 95.6287 126.822C96.7856 123.486 97.8165 119.888 98.717 116.079C102.019 117.069 105.23 117.89 108.317 118.527C109.175 122.247 112.513 125.03 116.49 125.03C119.913 125.03 122.863 122.968 124.165 120.022C125.5 119.952 126.774 119.826 127.972 119.629C133.739 118.679 137.77 116.28 139.952 112.5C142.134 108.72 142.196 104.03 140.135 98.5605C138.353 93.8303 135.008 88.6104 130.193 83.0463ZM110.769 37.4946C123.062 35.1339 131.904 36.3297 134.423 40.6925C136.941 45.0553 133.556 53.3109 125.365 62.7761C123.088 65.4076 120.51 68.0656 117.672 70.7188C113.079 66.7717 107.982 62.8747 102.5 59.123C101.992 52.4997 101.166 46.1372 100.044 40.1859C103.761 39.0545 107.352 38.151 110.769 37.4946ZM85.8577 93.8057C82.2397 95.8945 78.6093 97.8461 75.0002 99.6485C71.3909 97.8461 67.7608 95.8945 64.1428 93.8057C60.5249 91.7169 57.0196 89.5487 53.6541 87.3242C53.4105 83.2973 53.2854 79.1778 53.2854 74.9998C53.2854 70.8219 53.4105 66.7024 53.6541 62.6755C57.0196 60.451 60.5249 58.283 64.1428 56.1939C67.7608 54.1051 71.3912 52.1536 75.0002 50.3512C78.6096 52.1536 82.2397 54.1051 85.8577 56.1939C89.4756 58.2827 92.9809 60.451 96.3464 62.6755C96.5899 66.7024 96.7151 70.8219 96.7151 74.9998C96.7151 79.1778 96.5899 83.2973 96.3464 87.3242C92.9809 89.549 89.476 91.7169 85.8577 93.8057ZM95.6916 95.3365C95.245 99.6479 94.6553 103.814 93.93 107.788C90.1259 106.429 86.2232 104.857 82.2662 103.088C84.5287 101.889 86.7924 100.638 89.0501 99.3353C91.3078 98.0319 93.5227 96.6968 95.6916 95.3365ZM67.734 103.088C63.777 104.857 59.8742 106.429 56.0702 107.788C55.3452 103.814 54.7552 99.6479 54.3086 95.3365C56.4778 96.6968 58.6927 98.0319 60.9501 99.3353C63.2078 100.638 65.4715 101.889 67.734 103.088ZM47.0423 82.751C43.5319 80.2086 40.2191 77.6147 37.1401 74.9998C40.2191 72.3849 43.5322 69.7911 47.0423 67.2486C46.9488 69.8074 46.9002 72.3932 46.9002 74.9998C46.9002 77.6064 46.9491 80.1926 47.0423 82.751ZM54.3086 54.6635C54.7552 50.3524 55.3448 46.1863 56.0702 42.2121C59.8742 43.5711 63.777 45.1434 67.734 46.9123C65.4715 48.1107 63.2078 49.3615 60.9501 50.6647C58.6927 51.9681 56.4778 53.3035 54.3086 54.6635ZM82.2662 46.9123C86.2232 45.1434 90.1259 43.5711 93.93 42.2121C94.655 46.186 95.245 50.3521 95.6916 54.6635C93.5223 53.3032 91.3074 51.9681 89.0501 50.6647C86.7927 49.3615 84.529 48.1107 82.2662 46.9123ZM102.958 67.249C106.468 69.7914 109.781 72.3852 112.86 75.0002C109.781 77.6151 106.468 80.2089 102.958 82.7514C103.051 80.1926 103.1 77.6068 103.1 75.0002C103.1 72.3935 103.051 69.8077 102.958 67.249ZM60.4039 25.2706C64.5058 13.4449 69.9623 6.38484 74.9999 6.38484C77.8495 6.38484 80.8331 8.64539 83.6297 12.748C82.4644 14.1887 81.7647 16.0205 81.7647 18.0135C81.7647 22.5803 85.4331 26.3039 89.9778 26.3984C90.9636 29.3683 91.8489 32.5483 92.6282 35.9045C86.9134 37.9087 80.9902 40.3742 74.9999 43.2458C69.0097 40.3742 63.0865 37.9087 57.3717 35.9045C58.2506 32.1202 59.2635 28.5584 60.4039 25.2706ZM24.635 62.7761C16.4446 53.3109 13.0587 45.0553 15.5775 40.6925C17.2446 37.805 21.6814 36.3048 28.0557 36.3048C31.312 36.3048 35.0746 36.6965 39.2311 37.4946C42.6486 38.151 46.2394 39.0545 49.9563 40.1855C48.8345 46.1368 48.0083 52.4993 47.5001 59.1227C42.0181 62.8744 36.9214 66.7714 32.3281 70.7185C29.4904 68.0656 26.9122 65.4076 24.635 62.7761ZM39.2314 112.505C26.9393 114.866 18.0966 113.671 15.5778 109.307C13.8785 106.364 14.8704 101.648 18.2074 95.9858C18.8587 96.1487 19.539 96.2361 20.24 96.2361C24.8658 96.2361 28.6291 92.4726 28.6291 87.8468C28.6291 86.4261 28.2728 85.0876 27.6471 83.9134C29.115 82.3718 30.6764 80.8257 32.3284 79.2809C36.9214 83.228 42.0184 87.1246 47.5001 90.8767C48.0083 97.5003 48.8345 103.863 49.9563 109.814C46.2397 110.946 42.6489 111.849 39.2314 112.505ZM89.5963 124.729C85.4944 136.555 80.0379 143.615 75.0002 143.615C69.9626 143.615 64.5061 136.555 60.4042 124.729C59.2638 121.442 58.2509 117.88 57.372 114.095C63.0868 112.091 69.01 109.626 75.0002 106.754C80.9905 109.626 86.9137 112.091 92.6285 114.095C91.7496 117.88 90.7366 121.442 89.5963 124.729ZM134.423 109.307C132.971 111.822 129.416 113.282 124.314 113.618C123.098 110.482 120.05 108.251 116.49 108.251C113.485 108.251 110.844 109.841 109.363 112.222C106.371 111.598 103.254 110.791 100.044 109.814C101.166 103.863 101.992 97.5003 102.5 90.877C107.982 87.1253 113.079 83.2286 117.672 79.2812C120.51 81.9344 123.088 84.5924 125.365 87.2239C133.556 96.6894 136.941 104.945 134.423 109.307Z" fill="#EA8E02"/>
<path d="M75.0003 61.752C67.6954 61.752 61.7524 67.695 61.7524 75.0002C61.7524 82.3054 67.6954 88.2484 75.0003 88.2484C82.3052 88.2484 88.2486 82.3054 88.2486 75.0002C88.2486 67.695 82.3055 61.752 75.0003 61.752ZM75.0003 81.8632C71.216 81.8632 68.1373 78.7845 68.1373 74.9999C68.1373 71.2152 71.216 68.1365 75.0003 68.1365C78.7846 68.1365 81.8637 71.2152 81.8637 74.9999C81.8637 78.7845 78.7849 81.8632 75.0003 81.8632Z" fill="#EA8E02"/>
</g>
<defs>
<clipPath id="clip0">
<rect width="150" height="150" fill="white"/>
</clipPath>
</defs>
</svg>
