<svg width="150" height="150" viewBox="0 0 150 150" fill="none" xmlns="http://www.w3.org/2000/svg">
<path d="M52.5 10C48.39 10 45 13.39 45 17.5V27.5C45 30.85 50.05 30.8 50 27.5V17.5C50 16.07 51.07 15 52.5 15H97.5C98.93 15 100 16.07 100 17.5V27.5C100 30.8 105 30.85 105 27.5V17.5C105 13.39 101.61 10 97.5 10H52.5ZM137.46 45C136.72 45 136.035 45.29 135.595 45.89L108.095 78.39C105.795 81.1 104.32 82.81 102.995 83.71C102.165 84.275 101.195 84.58 99.995 84.775V82.5C99.995 81.115 98.88 80 97.495 80C96.11 80 94.995 81.115 94.995 82.5V85H54.995V82.5C54.995 81.115 53.88 80 52.495 80C51.11 80 49.995 81.115 49.995 82.5V84.775C48.795 84.575 47.825 84.275 46.995 83.71C45.67 82.81 44.195 81.1 41.895 78.39L14.395 45.89C13.915 45.3 13.26 44.99 12.495 45C10.395 45 9.195 47.51 10.595 49.11L38.095 81.61C40.365 84.3 41.98 86.34 44.185 87.84C45.825 88.955 47.72 89.605 49.995 89.865V92.5C49.995 93.885 51.11 95 52.495 95C53.88 95 54.995 93.885 54.995 92.5V90H94.995V92.5C94.995 93.885 96.11 95 97.495 95C98.88 95 99.995 93.885 99.995 92.5V89.865C102.27 89.605 104.165 88.955 105.805 87.84C108.005 86.34 109.625 84.3 111.905 81.61L139.405 49.11C140.755 47.75 139.605 45 137.455 45H137.46ZM7.5 35C3.39 35 0 38.39 0 42.5V132.5C0 136.61 3.39 140 7.5 140H142.5C146.61 140 150 136.61 150 132.5V42.5C150 38.39 146.61 35 142.5 35H7.5ZM7.5 40H142.5C143.93 40 145 41.07 145 42.5V132.5C145 133.93 143.93 135 142.5 135H7.5C6.07 135 5 133.93 5 132.5V42.5C5 41.07 6.07 40 7.5 40Z" fill="#2C467C"/>
</svg>
