<svg width="150" height="150" viewBox="0 0 150 150" fill="none" xmlns="http://www.w3.org/2000/svg">
<path d="M147.5 25H140V12.5C140 11.1194 138.881 10 137.5 10H95C85.3125 10 78.4351 12.9346 75 18.2825C71.5649 12.9346 64.6875 10 55 10H12.5C11.1194 10 10 11.1194 10 12.5V25H2.5C1.11938 25 0 26.1194 0 27.5V127.5C0 128.881 1.11938 130 2.5 130H56.3403C58.728 132.693 66.0901 140 75.647 140C82.1729 140 88.2397 136.637 93.7 130H147.5C148.881 130 150 128.881 150 127.5V27.5C150 26.1194 148.881 25 147.5 25ZM95 15H135V110H95C87.2778 110 81.3354 111.86 77.5 115.322V27.5C77.5 19.2053 83.3875 15 95 15ZM15 15H55C66.6125 15 72.5 19.2053 72.5 27.5V115.322C68.6646 111.86 62.7222 110 55 110H15V15ZM145 125H92.5C91.7285 125 90.9985 125.355 90.5249 125.966C85.8704 131.949 80.8728 135 75.6726 135H75.647C66.6479 135 59.5398 126.052 59.4702 125.962C58.9966 125.355 58.2703 125 57.5 125H5V30H10V112.5C10 113.881 11.1194 115 12.5 115H55C66.6125 115 72.5 119.205 72.5 127.5C72.5 128.881 73.6194 130 75 130C76.3806 130 77.5 128.881 77.5 127.5C77.5 119.205 83.3875 115 95 115H137.5C138.881 115 140 113.881 140 112.5V30H145V125Z" fill="#2C467C"/>
<path d="M27.5 35H60C61.3806 35 62.5 33.8806 62.5 32.5C62.5 31.1194 61.3806 30 60 30H27.5C26.1194 30 25 31.1194 25 32.5C25 33.8806 26.1194 35 27.5 35Z" fill="#2C467C"/>
<path d="M27.5 50H60C61.3806 50 62.5 48.8806 62.5 47.5C62.5 46.1194 61.3806 45 60 45H27.5C26.1194 45 25 46.1194 25 47.5C25 48.8806 26.1194 50 27.5 50Z" fill="#2C467C"/>
<path d="M27.5 65H60C61.3806 65 62.5 63.8806 62.5 62.5C62.5 61.1194 61.3806 60 60 60H27.5C26.1194 60 25 61.1194 25 62.5C25 63.8806 26.1194 65 27.5 65Z" fill="#2C467C"/>
<path d="M27.5 80H60C61.3806 80 62.5 78.8806 62.5 77.5C62.5 76.1194 61.3806 75 60 75H27.5C26.1194 75 25 76.1194 25 77.5C25 78.8806 26.1194 80 27.5 80Z" fill="#2C467C"/>
<path d="M27.5 95H60C61.3806 95 62.5 93.8806 62.5 92.5C62.5 91.1194 61.3806 90 60 90H27.5C26.1194 90 25 91.1194 25 92.5C25 93.8806 26.1194 95 27.5 95Z" fill="#2C467C"/>
<path d="M90 35H122.5C123.881 35 125 33.8806 125 32.5C125 31.1194 123.881 30 122.5 30H90C88.6194 30 87.5 31.1194 87.5 32.5C87.5 33.8806 88.6194 35 90 35Z" fill="#2C467C"/>
<path d="M90 50H122.5C123.881 50 125 48.8806 125 47.5C125 46.1194 123.881 45 122.5 45H90C88.6194 45 87.5 46.1194 87.5 47.5C87.5 48.8806 88.6194 50 90 50Z" fill="#2C467C"/>
<path d="M90 65H122.5C123.881 65 125 63.8806 125 62.5C125 61.1194 123.881 60 122.5 60H90C88.6194 60 87.5 61.1194 87.5 62.5C87.5 63.8806 88.6194 65 90 65Z" fill="#2C467C"/>
<path d="M90 80H122.5C123.881 80 125 78.8806 125 77.5C125 76.1194 123.881 75 122.5 75H90C88.6194 75 87.5 76.1194 87.5 77.5C87.5 78.8806 88.6194 80 90 80Z" fill="#2C467C"/>
<path d="M90 95H122.5C123.881 95 125 93.8806 125 92.5C125 91.1194 123.881 90 122.5 90H90C88.6194 90 87.5 91.1194 87.5 92.5C87.5 93.8806 88.6194 95 90 95Z" fill="#2C467C"/>
</svg>
