<svg width="171" height="170" viewBox="0 0 171 170" fill="none" xmlns="http://www.w3.org/2000/svg">
<g clip-path="url(#clip0)">
<path d="M145.114 24.8951C129.173 8.95448 107.552 -0.000342732 85.0088 9.83836e-09C83.4946 9.83836e-09 82.2668 1.2277 82.2668 2.74194V24.6774C82.2668 26.1917 83.4946 27.4194 85.0088 27.4194C86.523 27.4194 87.7507 26.1917 87.7507 24.6774V5.53048C131.64 7.04403 165.993 43.8507 164.479 87.7402C162.965 131.63 126.159 165.982 82.2692 164.468C38.3798 162.955 4.02743 126.148 5.54098 82.2588C6.23503 62.1305 14.5414 43.0155 28.7827 28.7742C29.8345 27.685 29.8044 25.949 28.7151 24.8971C27.6526 23.8709 25.9681 23.8709 24.9056 24.8971C-8.28865 58.092 -8.28763 111.911 24.9073 145.105C58.1022 178.299 111.921 178.298 145.115 145.104C178.31 111.909 178.309 58.0893 145.114 24.8951Z" fill="white"/>
<path d="M85.0087 74.0322C83.0567 74.0418 81.1439 74.5789 79.4727 75.5869L40.4138 36.528C39.3246 35.4761 37.5886 35.5063 36.5367 36.5955C35.5105 37.658 35.5105 39.3426 36.5367 40.4051L75.5956 79.464C74.5876 81.1352 74.0505 83.048 74.0409 84.9999C74.0409 91.0572 78.9514 95.9677 85.0087 95.9677C91.0659 95.9677 95.9764 91.0572 95.9764 84.9999C95.9764 78.9426 91.0659 74.0322 85.0087 74.0322ZM85.0087 90.4838C81.9798 90.4838 79.5248 88.0287 79.5248 84.9999C79.5248 81.9711 81.9798 79.5161 85.0087 79.5161C88.0375 79.5161 90.4925 81.9711 90.4925 84.9999C90.4925 88.0287 88.0375 90.4838 85.0087 90.4838Z" fill="white"/>
</g>
<defs>
<clipPath id="clip0">
<rect width="170" height="170" fill="white" transform="translate(0.010498)"/>
</clipPath>
</defs>
</svg>
