<svg width="170" height="155" viewBox="0 0 170 155" fill="none" xmlns="http://www.w3.org/2000/svg">
<path d="M151.36 11.498H125.529C124.15 11.498 123.033 12.5402 123.033 13.8257C123.033 15.1111 124.15 16.1533 125.529 16.1533H151.36C158.886 16.1533 165.009 21.8643 165.009 28.8841V101.605H136.28C134.902 101.605 133.785 102.647 133.785 103.933C133.785 105.218 134.902 106.26 136.28 106.26H164.776C163.6 112.172 158.034 116.663 151.36 116.663H86.1702C84.7917 116.663 83.6747 117.706 83.6747 118.991C83.6747 120.277 84.7917 121.319 86.1702 121.319H100.45V130.489C100.45 131.047 100.665 131.587 101.056 132.01L106.926 138.352H63.4069L69.2764 132.01C69.6677 131.587 69.8826 131.047 69.8826 130.489V121.319H75.5347C76.9133 121.319 78.0302 120.277 78.0302 118.991C78.0302 117.706 76.9133 116.663 75.5347 116.663H18.64C11.9664 116.663 6.40012 112.172 5.22391 106.26H125.646C127.025 106.26 128.142 105.218 128.142 103.933C128.142 102.647 127.025 101.605 125.646 101.605H4.991V28.8841C4.991 21.8643 11.1136 16.1533 18.64 16.1533H44.8038C46.1824 16.1533 47.2993 15.1111 47.2993 13.8257C47.2993 12.5402 46.1824 11.498 44.8038 11.498H18.64C8.36192 11.498 0 19.2974 0 28.8841V103.933C0 113.519 8.36192 121.319 18.64 121.319H64.8919V129.623L56.8135 138.352H53.4875C49.506 138.352 46.2669 141.373 46.2669 145.087V147.447C46.2669 151.161 49.506 154.182 53.4875 154.182H116.512C120.494 154.182 123.733 151.161 123.733 147.447V145.087C123.733 141.373 120.494 138.352 116.512 138.352H113.519L105.441 129.623V121.319H151.36C161.638 121.319 170 113.519 170 103.933V28.8841C170 19.2974 161.638 11.498 151.36 11.498ZM118.742 145.087V147.447C118.742 148.594 117.742 149.527 116.512 149.527H53.4875C52.2581 149.527 51.2579 148.594 51.2579 147.447V145.087C51.2579 143.94 52.2581 143.007 53.4875 143.007H116.512C117.742 143.007 118.742 143.94 118.742 145.087Z" fill="white"/>
<path d="M47.3174 36.8418C48.6873 36.9557 49.9001 36.0054 50.0195 34.7246C50.7812 26.5569 54.775 18.9862 61.2656 13.4071C62.0269 12.7529 62.8158 12.1341 63.6277 11.5494L83.0872 38.9021C83.5497 39.552 84.33 39.9427 85.1665 39.9427H120.361C119.439 52.1875 111.304 62.6049 99.9032 67.513L85.596 54.8956C86.2751 53.6961 86.6614 52.3309 86.6614 50.8828C86.6614 46.1264 82.5126 42.257 77.4134 42.257C72.3143 42.257 68.1655 46.1264 68.1655 50.8828C68.1655 52.0612 68.4207 53.1846 68.8815 54.2088L66.6475 55.8567C65.5665 56.654 65.3832 58.1179 66.2383 59.1262C66.7307 59.7072 67.4604 60.0101 68.1974 60.0101C68.7394 60.0101 69.2858 59.8459 69.7436 59.5079L71.9816 57.8572C73.5082 58.8944 75.3851 59.5083 77.4138 59.5083C79.151 59.5083 80.7774 59.0583 82.1675 58.278L94.676 69.3093C91.6494 70.1004 88.4602 70.525 85.1665 70.525C68.3428 70.525 53.7834 59.367 50.5469 43.994C50.2814 42.7328 48.9731 41.9113 47.6172 42.1583C46.265 42.406 45.3839 43.6294 45.6494 44.8906C47.176 52.1425 50.9106 58.5713 56.1212 63.621L37.4642 77.3827C35.9376 76.3455 34.0607 75.7313 32.0317 75.7313C26.9325 75.7313 22.7837 79.6007 22.7837 84.3571C22.7837 89.1135 26.9325 92.9829 32.0317 92.9829C37.1308 92.9829 41.2796 89.1135 41.2796 84.3571C41.2796 83.1787 41.0244 82.0553 40.5639 81.0314L59.8468 66.8079C66.8256 72.0699 75.6799 75.1802 85.1665 75.1802C89.9548 75.1802 94.5499 74.395 98.8135 72.9584L107.188 80.3443C106.509 81.5438 106.123 82.909 106.123 84.3571C106.123 89.1135 110.272 92.9829 115.371 92.9829C120.47 92.9829 124.619 89.1135 124.619 84.3571C124.619 82.9274 124.242 81.5789 123.579 80.3903L141.758 64.5499C143.159 65.3468 144.803 65.8064 146.56 65.8064C151.659 65.8064 155.808 61.937 155.808 57.1807C155.808 52.4246 151.659 48.5552 146.56 48.5552C141.461 48.5552 137.312 52.4246 137.312 57.1807C137.312 58.6104 137.689 59.9589 138.352 61.1472L120.173 76.9879C118.772 76.191 117.128 75.7313 115.371 75.7313C113.634 75.7313 112.007 76.1813 110.617 76.9616L103.771 70.9238C116.638 64.6457 125.441 52.072 125.441 37.6148C125.441 16.9013 107.374 0.0498047 85.1665 0.0498047C75.0251 0.0498047 65.3359 3.57783 57.8834 9.9837C50.4754 16.3511 45.9169 24.9943 45.0475 34.3211C44.9277 35.6019 45.9442 36.7307 47.3174 36.8418ZM73.1568 50.8828C73.1568 48.6933 75.0663 46.9122 77.4138 46.9122C79.7612 46.9122 81.6708 48.6933 81.6708 50.8828C81.6708 53.072 79.7612 54.8531 77.4138 54.8531C75.0663 54.8531 73.1568 53.072 73.1568 50.8828ZM32.032 88.328C29.6846 88.328 27.775 86.5469 27.775 84.3574C27.775 82.1679 29.6846 80.3869 32.032 80.3869C34.3794 80.3869 36.289 82.1679 36.289 84.3574C36.289 86.5469 34.3791 88.328 32.032 88.328ZM146.56 53.2104C148.908 53.2104 150.817 54.9915 150.817 57.1807C150.817 59.3702 148.908 61.1512 146.56 61.1512C144.213 61.1512 142.303 59.3702 142.303 57.1807C142.303 54.9915 144.213 53.2104 146.56 53.2104ZM118.462 81.6357C118.467 81.641 118.471 81.6465 118.476 81.6515C118.479 81.6543 118.482 81.6568 118.485 81.6596C119.192 82.3687 119.628 83.3153 119.628 84.3574C119.628 86.5469 117.718 88.328 115.371 88.328C113.024 88.328 111.114 86.5469 111.114 84.3574C111.114 83.3041 111.559 82.3479 112.279 81.6363C112.28 81.6354 112.281 81.6348 112.282 81.6335C112.285 81.6313 112.286 81.6289 112.289 81.6267C113.065 80.8648 114.158 80.3865 115.371 80.3865C116.589 80.3869 117.685 80.8688 118.462 81.6357ZM120.361 35.2878H86.5054L67.7835 8.97166C73.0403 6.19157 79.0079 4.70532 85.1661 4.70532C103.783 4.70532 119.076 18.2231 120.361 35.2878Z" fill="white"/>
</svg>
