<svg width="150" height="150" viewBox="0 0 150 150" fill="none" xmlns="http://www.w3.org/2000/svg">
<path d="M146.416 56.5267L76.1039 19.0267C75.4125 18.6587 74.5898 18.6587 73.8984 19.0267L3.58594 56.5267C2.81953 56.9345 2.34375 57.7291 2.34375 58.5939C2.34375 59.4587 2.81953 60.2533 3.58359 60.6611L23.4375 71.2501V100.781H28.125V73.7509L35.1562 77.5009V91.7392C31.1227 92.7869 28.125 96.4244 28.125 100.781C28.125 102.924 28.875 104.876 30.0891 106.458C28.8094 110.834 28.125 115.345 28.125 119.911V126.563C28.125 127.451 28.6266 128.262 29.4211 128.66L32.0109 129.956C33.7078 130.802 35.6039 131.25 37.5 131.25C39.3961 131.25 41.2922 130.802 42.9891 129.954L45.5789 128.658C46.3734 128.262 46.875 127.451 46.875 126.563V119.911C46.875 115.345 46.1906 110.834 44.9109 106.458C46.125 104.876 46.875 102.924 46.875 100.781C46.875 96.4244 43.8773 92.7869 39.8438 91.7392V80.0017L73.8961 98.1634C74.243 98.3462 74.6203 98.4376 75 98.4376C75.3797 98.4376 75.757 98.3462 76.1039 98.1634L121.875 73.7509V99.6236C108.839 109.446 92.7375 114.844 76.4039 114.844H73.5984C65.5523 114.844 57.5977 113.567 49.9523 111.047L48.4875 115.5C56.6016 118.174 65.0531 119.531 73.5961 119.531H76.4016C94.1531 119.531 111.645 113.529 125.658 102.631C126.227 102.188 126.562 101.506 126.562 100.781V71.2501L146.416 60.6611C147.18 60.2533 147.656 59.4587 147.656 58.5939C147.656 57.7291 147.18 56.9345 146.416 56.5267ZM42.1875 125.114L40.8914 125.761C38.7938 126.809 36.2039 126.809 34.1063 125.761L32.8125 125.114V119.911C32.8125 116.388 33.2414 112.899 34.0875 109.491C35.1469 109.908 36.293 110.156 37.5 110.156C38.707 110.156 39.8531 109.908 40.9125 109.491C41.7586 112.899 42.1875 116.388 42.1875 119.911V125.114ZM42.1875 100.781C42.1875 103.367 40.0852 105.469 37.5 105.469C34.9148 105.469 32.8125 103.367 32.8125 100.781C32.8125 98.1962 34.9148 96.0939 37.5 96.0939C40.0852 96.0939 42.1875 98.1962 42.1875 100.781ZM75 93.4361L41.4562 75.5462L70.493 60.0611C71.8266 60.6048 73.3453 60.9376 75 60.9376C80.257 60.9376 84.375 57.8486 84.375 53.9064C84.375 49.9642 80.257 46.8751 75 46.8751C69.743 46.8751 65.625 49.9642 65.625 53.9064C65.625 54.9775 65.9508 55.9759 66.4992 56.8783L36.4758 72.8908L9.66797 58.5939L75 23.7494L140.332 58.5939L75 93.4361ZM70.3125 53.9064C70.3125 52.9501 72.1383 51.5626 75 51.5626C77.8617 51.5626 79.6875 52.9501 79.6875 53.9064C79.6875 54.8626 77.8617 56.2501 75 56.2501C72.1383 56.2501 70.3125 54.8626 70.3125 53.9064Z" fill="#EA8E02"/>
</svg>
