<?xml version="1.0" encoding="iso-8859-1"?>
<!-- Generator: Adobe Illustrator 21.0.0, SVG Export Plug-In . SVG Version: 6.00 Build 0)  -->
<svg xmlns="http://www.w3.org/2000/svg" xmlns:xlink="http://www.w3.org/1999/xlink" version="1.1" id="Capa_1" x="0px" y="0px" viewBox="0 0 512 512" style="enable-background:new 0 0 512 512;" xml:space="preserve" width="512" height="512">
<g>
	<path d="M285.999,512h-90c-8.291,0-15-6.709-15-15V300h-45c-8.291,0-15-6.709-15-15v-90c0-8.291,6.709-15,15-15h45v-75   c0-57.891,47.109-105,105-105h90c8.291,0,15,6.709,15,15v90c0,8.291-6.709,15-15,15h-75v60h75c4.409,0,8.599,1.934,11.44,5.303   c2.856,3.369,4.087,7.808,3.354,12.158l-15,90c-1.201,7.236-7.456,12.539-14.795,12.539h-60v197   C300.999,505.291,294.29,512,285.999,512z"/>
</g>















</svg>
