<svg width="105" height="94" viewBox="0 0 105 94" fill="none" xmlns="http://www.w3.org/2000/svg">
<g clip-path="url(#clip0)">
<path d="M79.6569 44.4205L31.0913 1.06298C29.5001 -0.356741 26.9239 -0.354354 25.3354 1.07033C23.7481 2.49483 23.7522 4.80241 25.3436 6.22323L71.0184 47.0002L25.342 87.7769C23.7508 89.1979 23.7467 91.504 25.3338 92.9287C26.1301 93.6429 27.1733 94 28.2165 94C29.2571 94 30.2962 93.6453 31.0911 92.9361L79.6569 49.5796C80.4233 48.897 80.8533 47.9681 80.8533 47.0002C80.8533 46.0323 80.422 45.1044 79.6569 44.4205Z" fill="white"/>
<g clip-path="url(#clip1)">
<path d="M64.2078 45.32L39.6937 25.4863C38.8905 24.8368 37.5902 24.8379 36.7884 25.4896C35.9871 26.1413 35.9892 27.1968 36.7925 27.8468L59.8474 46.5001L36.7917 65.1533C35.9885 65.8033 35.9864 66.8582 36.7875 67.5099C37.1895 67.8366 37.7161 68 38.2426 68C38.7679 68 39.2924 67.8377 39.6936 67.5133L64.2078 47.68C64.5946 47.3678 64.8117 46.9428 64.8117 46.5001C64.8117 46.0573 64.594 45.6329 64.2078 45.32Z" fill="white"/>
</g>
</g>
<defs>
<clipPath id="clip0">
<rect width="105" height="94" fill="white"/>
</clipPath>
<clipPath id="clip1">
<rect width="53" height="43" fill="white" transform="translate(24 25)"/>
</clipPath>
</defs>
</svg>
