<svg width="105" height="94" viewBox="0 0 105 94" fill="none" xmlns="http://www.w3.org/2000/svg">
<g clip-path="url(#clip0)">
<path d="M25.3429 49.5795L73.9085 92.937C75.4996 94.3567 78.0758 94.3544 79.6644 92.9297C81.2517 91.5052 81.2476 89.1976 79.6562 87.7768L33.9813 46.9998L79.6578 6.2231C81.249 4.80209 81.2531 2.49598 79.666 1.0713C78.8697 0.357117 77.8265 2.28882e-05 76.7832 2.28882e-05C75.7427 2.28882e-05 74.7035 0.354729 73.9087 1.06395L25.3429 44.4204C24.5765 45.103 24.1464 46.0319 24.1464 46.9998C24.1464 47.9677 24.5777 48.8956 25.3429 49.5795Z" fill="white"/>
</g>
<g clip-path="url(#clip1)">
<path d="M39.792 47.68L64.306 67.5137C65.1092 68.1632 66.4096 68.1621 67.2114 67.5104C68.0126 66.8587 68.0105 65.8032 67.2073 65.1532L44.1524 46.4999L67.2081 27.8467C68.0113 27.1967 68.0133 26.1418 67.2122 25.4901C66.8103 25.1634 66.2837 25 65.7571 25C65.2319 25 64.7074 25.1623 64.3061 25.4867L39.792 45.32C39.4051 45.6322 39.1881 46.0572 39.1881 46.4999C39.1881 46.9427 39.4058 47.3671 39.792 47.68Z" fill="white"/>
</g>
<defs>
<clipPath id="clip0">
<rect width="105" height="94" fill="white" transform="translate(105 94) rotate(-180)"/>
</clipPath>
<clipPath id="clip1">
<rect width="53" height="43" fill="white" transform="translate(80 68) rotate(-180)"/>
</clipPath>
</defs>
</svg>
