<svg width="300" height="300" viewBox="0 0 300 300" fill="none" xmlns="http://www.w3.org/2000/svg">
<path d="M265 115H185V35C185 15.67 169.33 0 150 0C130.67 0 115 15.67 115 35V115H35C15.67 115 0 130.67 0 150C0 169.33 15.67 185 35 185H115V265C115 284.33 130.67 300 150 300C169.33 300 185 284.33 185 265V185H265C284.33 185 300 169.33 300 150C300 130.67 284.33 115 265 115ZM265 175H180C177.239 175 175 177.239 175 180V265C175 278.807 163.807 290 150 290C136.193 290 125 278.807 125 265V180C125 177.239 122.761 175 120 175H35C21.1931 175 10 163.807 10 150C10 136.193 21.1931 125 35 125H120C122.761 125 125 122.761 125 120V35C125 21.1931 136.193 10 150 10C163.807 10 175 21.1931 175 35V120C175 122.761 177.239 125 180 125H265C278.807 125 290 136.193 290 150C290 163.807 278.807 175 265 175Z" fill="#EA8E02"/>
</svg>
