<svg width="150" height="150" viewBox="0 0 150 150" fill="none" xmlns="http://www.w3.org/2000/svg">
<path d="M118.889 6.47131H106.36C105.044 2.70779 101.459 0 97.252 0H52.7466C48.5395 0 44.955 2.70779 43.6387 6.47131H31.1114C24.5512 6.47131 19.2141 11.8084 19.2141 18.3686V138.103C19.2141 144.663 24.5512 150 31.1114 150H118.889C125.449 150 130.786 144.663 130.786 138.103V18.3686C130.786 11.8084 125.449 6.47131 118.889 6.47131ZM43.3958 25.3737C44.4572 29.5482 48.2468 32.6452 52.7466 32.6452H97.252C101.752 32.6452 105.541 29.5482 106.603 25.3737H110.602V113.719H39.3941V25.3737H43.3958ZM49.7806 9.64783C49.7806 8.01213 51.1109 6.68178 52.7466 6.68178H97.252C98.8877 6.68178 100.218 8.01246 100.218 9.64783V22.9974C100.218 24.6331 98.8877 25.9634 97.252 25.9634H52.7466C51.1109 25.9634 49.7806 24.6331 49.7806 22.9974V9.64783ZM124.104 138.103C124.104 140.979 121.764 143.318 118.889 143.318H31.1114C28.2355 143.318 25.8959 140.979 25.8959 138.103V18.3686C25.8959 15.4927 28.2355 13.1531 31.1114 13.1531H43.0988V18.692H36.0532C34.208 18.692 32.7123 20.1877 32.7123 22.0328V117.059C32.7123 118.905 34.208 120.4 36.0532 120.4H113.943C115.789 120.4 117.284 118.905 117.284 117.059V22.0328C117.284 20.1877 115.789 18.692 113.943 18.692H106.9V13.1531H118.889C121.765 13.1531 124.104 15.4927 124.104 18.3686V138.103H124.104Z" fill="#2C467C"/>
<path d="M59.1617 21.7406H90.837C92.6822 21.7406 94.1779 20.2449 94.1779 18.3997V15.8035C94.1779 13.9584 92.6822 12.4626 90.837 12.4626C89.2477 12.4626 87.9177 13.5722 87.5793 15.0589H62.4194C62.081 13.5722 60.751 12.4626 59.1617 12.4626C57.3165 12.4626 55.8208 13.9584 55.8208 15.8035V18.3997C55.8208 20.2449 57.3165 21.7406 59.1617 21.7406Z" fill="#2C467C"/>
<path d="M62.4708 52.2826H102.058C103.904 52.2826 105.399 50.7869 105.399 48.9417C105.399 47.0965 103.904 45.6008 102.058 45.6008H62.4708C60.6256 45.6008 59.1299 47.0965 59.1299 48.9417C59.1299 50.7869 60.6256 52.2826 62.4708 52.2826Z" fill="#2C467C"/>
<path d="M47.9388 52.2826H52.9501C54.7953 52.2826 56.291 50.7869 56.291 48.9417C56.291 47.0965 54.7953 45.6008 52.9501 45.6008H47.9388C46.0936 45.6008 44.5979 47.0965 44.5979 48.9417C44.5979 50.7869 46.0936 52.2826 47.9388 52.2826Z" fill="#2C467C"/>
<path d="M47.9388 70.8239H52.9501C54.7953 70.8239 56.291 69.3282 56.291 67.483C56.291 65.6378 54.7953 64.1421 52.9501 64.1421H47.9388C46.0936 64.1421 44.5979 65.6378 44.5979 67.483C44.5979 69.3282 46.0936 70.8239 47.9388 70.8239Z" fill="#2C467C"/>
<path d="M62.4708 70.8239H102.058C103.904 70.8239 105.399 69.3282 105.399 67.483C105.399 65.6378 103.904 64.1421 102.058 64.1421H62.4708C60.6256 64.1421 59.1299 65.6378 59.1299 67.483C59.1299 69.3282 60.6256 70.8239 62.4708 70.8239Z" fill="#2C467C"/>
<path d="M47.9388 89.3649H52.9501C54.7953 89.3649 56.291 87.8692 56.291 86.024C56.291 84.1788 54.7953 82.6831 52.9501 82.6831H47.9388C46.0936 82.6831 44.5979 84.1788 44.5979 86.024C44.5979 87.8692 46.0936 89.3649 47.9388 89.3649Z" fill="#2C467C"/>
<path d="M62.4708 89.3649H102.058C103.904 89.3649 105.399 87.8692 105.399 86.024C105.399 84.1788 103.904 82.6831 102.058 82.6831H62.4708C60.6256 82.6831 59.1299 84.1788 59.1299 86.024C59.1299 87.8692 60.6256 89.3649 62.4708 89.3649Z" fill="#2C467C"/>
</svg>
