<svg width="150" height="150" viewBox="0 0 150 150" fill="none" xmlns="http://www.w3.org/2000/svg">
<g clip-path="url(#clip0)">
<path d="M146.094 107.362C143.296 103.25 138.549 102.246 133.393 104.672L130.66 105.875C134.969 96.6908 135.504 86.4524 133.359 76.7815C130.895 65.6741 124.945 54.914 115.673 44.7998C114.853 43.9054 113.464 43.845 112.569 44.6651C111.675 45.4848 111.614 46.8743 112.434 47.7691C121.178 57.307 126.775 67.3883 129.07 77.7327C131.486 88.6291 130.08 99.8662 123.913 108.846L96.5667 120.887L96.5893 117.798C96.5899 117.72 96.5864 117.642 96.5785 117.565C95.9471 111.217 91.095 106.159 84.7789 105.266C84.7601 105.263 84.7414 105.261 84.7223 105.259L60.4173 102.46C51.0713 101.13 48.6643 95.5291 36.0069 92.3355C35.1324 84.9146 36.2981 77.0135 39.4932 69.0925C44.3052 57.1634 53.7192 45.5736 66.7698 35.4858C71.6339 38.9346 93.335 39.3638 98.1913 34.9148C100.679 36.8041 103.054 38.7512 105.266 40.722C105.684 41.0952 106.206 41.2786 106.726 41.2786C107.331 41.2786 107.933 41.0305 108.367 40.5433C109.174 39.6374 109.094 38.2488 108.188 37.4416C105.764 35.2816 103.156 33.1502 100.42 31.0904C101.061 28.3722 100.164 25.1908 97.7969 23.2971C104.676 12.8639 106.676 6.03508 103.913 2.45735C102.014 -0.000369713 99.6532 1.15305 98.6448 1.64582C96.9356 2.4802 96.0037 2.52414 94.431 1.49524C91.4307 -0.467948 88.2772 -0.531229 85.1802 1.49524C83.5876 2.53733 82.3334 2.53733 80.7415 1.49524C77.7409 -0.467948 74.5885 -0.531229 71.491 1.49524C69.9001 2.53645 68.9647 2.47199 67.2825 1.63586C66.2752 1.13518 63.9166 -0.0372839 62.0064 2.42072C59.3049 5.89768 61.1123 12.5112 67.5268 22.5896C67.1339 22.802 66.7595 23.0513 66.41 23.3361C63.8588 20.6419 59.6791 17.8321 53.6345 18.5071C48.6209 19.0681 44.924 17.4114 42.705 15.9231C41.6972 15.2481 40.3326 15.517 39.657 16.5242C38.9814 17.5321 39.2506 18.8967 40.2582 19.5723C43.0868 21.4687 47.7877 23.5798 54.122 22.8735C58.7919 22.3496 61.9607 24.7362 63.9333 27.1649C63.9063 27.2586 63.8814 27.353 63.8582 27.4473C62.1757 27.4737 59.6612 27.6307 56.892 28.2067C50.2323 29.5921 45.2887 32.7571 42.5955 37.3602C41.9829 38.4072 42.335 39.7531 43.3821 40.366C44.4294 40.9786 45.7751 40.6262 46.3876 39.5791C50.3937 32.7327 60.1721 31.8954 64.056 31.843C64.0727 31.8913 64.0923 31.9391 64.1099 31.9871C50.2501 42.6784 40.6009 54.6014 35.4189 67.4481C32.1435 75.5683 30.8351 83.7034 31.4993 91.4346C29.3925 91.1229 27.2615 90.9556 25.1202 90.9409V89.6123C25.1202 86.097 22.2602 83.2373 18.7449 83.2373H8.65972C5.14439 83.2373 2.28442 86.0973 2.28442 89.6123V140.778C2.28442 144.293 5.14439 147.153 8.65972 147.153H18.7446C22.2599 147.153 25.1199 144.293 25.1199 140.778V140.152L47.1192 148.34C50.0755 149.44 53.174 149.998 56.3284 149.998H89.1075C94.119 149.998 99.0054 148.58 103.238 145.898C146.966 118.177 144.311 119.902 144.564 119.678C148.086 116.552 148.744 111.257 146.094 107.362ZM94.0686 32.3114C86.0348 34.34 78.2237 34.34 70.1881 32.3114C66.7402 31.4399 67.7392 25.2904 71.4447 26.2197C78.6335 28.0244 85.6226 28.0244 92.8121 26.2197C96.4531 25.3057 97.5719 31.4261 94.0686 32.3114ZM65.2759 5.54553C65.2932 5.55402 65.3105 5.56281 65.3269 5.57102C68.3002 7.04875 70.9056 7.12902 73.8965 5.17229C77.6395 2.72219 78.0458 6.65061 82.9604 6.65061C85.3264 6.65061 86.6322 5.79631 87.5855 5.17229C89.1784 4.1299 90.4329 4.13049 92.0254 5.17229C95.0295 7.13811 97.5719 7.04113 100.632 5.56545C101.084 7.19494 100.061 12.0527 93.5462 21.7517C90.3113 21.6966 85.6168 24.8738 72.3271 21.9163C65.8267 12.0919 64.8215 7.18703 65.2759 5.54553ZM141.766 116.285L100.887 142.188C97.3584 144.424 93.2852 145.606 89.1078 145.606H56.3287C53.6993 145.606 51.1165 145.141 48.652 144.223L25.1199 135.465V111.806C25.1199 110.592 24.1364 109.609 22.9232 109.609C21.71 109.609 20.7265 110.592 20.7265 111.806V140.779C20.7265 141.872 19.8374 142.76 18.7449 142.76H8.65972C7.56694 142.76 6.67808 141.871 6.67808 140.779V89.6135C6.67808 88.5207 7.56694 87.6321 8.65972 87.6321H18.7446C19.8374 87.6321 20.7262 88.521 20.7262 89.6135V101.536C20.7262 102.749 21.7097 103.733 22.9229 103.733C24.1361 103.733 25.1196 102.749 25.1196 101.536V95.3358C43.2927 95.4749 47.3788 105.054 59.8293 106.815C59.8481 106.818 59.8668 106.82 59.8856 106.822L84.1894 109.62C88.4451 110.234 91.7202 113.623 92.1942 117.89L92.1637 122.069H69.4982C68.285 122.069 67.3012 123.052 67.3012 124.266C67.3012 125.479 68.2847 126.463 69.4982 126.463H94.3446C94.622 126.463 94.9425 126.401 95.2214 126.279C95.2663 126.259 135.142 108.703 135.189 108.682C138.063 107.405 140.684 107.222 142.461 109.834C143.843 111.863 143.537 114.607 141.766 116.285Z" fill="#EA8E02"/>
<path d="M82.7071 99.6737C83.9203 99.6737 84.9041 98.6902 84.9041 97.4768V93.8352C91.0714 92.8344 94.6699 87.8425 95.4527 83.1855C96.4307 77.368 93.3835 72.3087 87.69 70.2963C86.6839 69.9406 85.7581 69.6005 84.9038 69.2721V55.2646C87.5027 55.6956 89.0631 57.0406 89.1768 57.1411C90.0692 57.9526 91.4502 57.8926 92.2691 57.0049C93.0917 56.1131 93.0355 54.7232 92.1437 53.9006C91.9887 53.7576 89.2981 51.3351 84.9038 50.8285V47.7043C84.9038 46.4908 83.9203 45.5073 82.7068 45.5073C81.4937 45.5073 80.5102 46.4908 80.5102 47.7043V51.0061C79.9805 51.1074 79.4379 51.2363 78.8804 51.4042C75.1538 52.5266 72.3683 55.722 71.6104 59.743C70.9228 63.3919 72.0797 66.9011 74.6294 68.9009C76.0934 70.049 77.9361 71.1002 80.5102 72.224V89.5974C77.9695 89.4898 76.4057 89.0129 73.6775 87.2281C72.6624 86.5643 71.3007 86.8482 70.6365 87.8639C69.9724 88.879 70.2568 90.2407 71.2723 90.9049C74.8585 93.251 77.2559 93.863 80.5102 93.9896V97.4768C80.5102 98.6902 81.4937 99.6737 82.7071 99.6737ZM77.3411 65.4439C76.0869 64.4601 75.5452 62.5874 75.9281 60.5568C76.2832 58.6736 77.5778 56.3855 80.1478 55.6115C80.2699 55.5746 80.39 55.543 80.5102 55.5107V67.3774C79.1947 66.7206 78.1632 66.0887 77.3411 65.4439ZM86.2257 74.4389C91.6925 76.371 91.3538 81.0649 91.1197 82.4574C90.6352 85.3405 88.5188 88.4185 84.9038 89.3448V73.9628C85.3315 74.1192 85.7684 74.2772 86.2257 74.4389Z" fill="#EA8E02"/>
</g>
<defs>
<clipPath id="clip0">
<rect width="150" height="150" fill="white"/>
</clipPath>
</defs>
</svg>
