<svg width="30" height="29" viewBox="0 0 30 29" fill="none" xmlns="http://www.w3.org/2000/svg">
<path d="M26.918 0.667969H2.326C1.039 0.667969 0 1.70697 0 2.99197V26.251C0 27.533 1.039 28.574 2.326 28.574H26.918C28.197 28.574 29.242 27.533 29.242 26.251V2.99197C29.242 1.70697 28.197 0.667969 26.918 0.667969ZM19.656 8.95297C19.051 8.59897 18.572 8.31997 17.97 8.31997C17.38 8.31997 16.874 8.46697 16.616 8.71597C16.36 8.96197 16.231 9.43897 16.231 10.144V11.185H19.385L18.703 14.084H16.23V23.717H12.269V14.084H10.419V11.185H12.269V10.078C12.269 8.91397 12.408 8.21697 12.683 7.63997C12.958 7.06697 13.492 6.42897 14.232 6.06797C14.97 5.70697 16.064 5.52497 17.197 5.52497C18.357 5.52497 19.263 5.91197 20.375 6.22397L19.656 8.95297Z" fill="#2C467C"/>
</svg>
