<svg width="170" height="170" viewBox="0 0 170 170" fill="none" xmlns="http://www.w3.org/2000/svg">
<path d="M126.128 2.74414V8.23233H135.966L79.5117 64.6871L52.1042 37.2461L17.2676 72.0827L21.116 75.9646L52.1042 45.0099L79.5117 72.4174L139.848 12.1142V21.9193H145.336V2.74414H126.128Z" fill="white"/>
<path d="M164.512 161.768V41.1279H137.104V161.768H131.616V57.5925H104.209V161.801H98.7205V95.9764H71.2795V161.768H65.7913V79.5118H38.3839V161.768H32.8957V123.384H5.48819V161.768H0V167.256H170V161.768H164.512ZM27.4409 161.768H10.9764V128.872H27.4409V161.768ZM60.3366 161.768H43.872V85H60.3366V161.768ZM93.2323 161.801H76.7677V101.465H93.2323V161.801ZM126.128 161.801H109.663V63.0807H126.128V161.801ZM159.057 161.768H142.593V46.6161H159.057V161.768Z" fill="white"/>
</svg>
